{
  "accessors": [
    {
      "bufferView": 2,
      "componentType": 5126,
      "count": 258,
      "max": [
        572.5180053710938,
        938.083251953125,
        799.494140625
      ],
      "min": [
        -572.2706909179688,
        -706.8748779296875,
        15.015340805053711
      ],
      "type": "VEC3"
    },
    {
      "bufferView": 2,
      "byteOffset": 3096,
      "componentType": 5126,
      "count": 258,
      "max": [
        1.0,
        1.0,
        1.0
      ],
      "min": [
        -1.0,
        -1.0,
        -0.9959861040115356
      ],
      "type": "VEC3"
    },
    {
      "bufferView": 3,
      "componentType": 5126,
      "count": 258,
      "max": [
        1.0,
        0.9987817406654358,
        1.0,
        1.0
      ],
      "min": [
        -0.9999043941497803,
        -0.9998061060905457,
        -1.0,
        1.0
      ],
      "type": "VEC4"
    },
    {
      "bufferView": 1,
      "componentType": 5126,
      "count": 258,
      "max": [
        0.9760289788246155,
        0.9675319790840149
      ],
      "min": [
        0.008514000102877617,
        0.006041999906301498
      ],
      "type": "VEC2"
    },
    {
      "bufferView": 0,
      "componentType": 5125,
      "count": 438,
      "type": "SCALAR"
    },
    {
      "bufferView": 2,
      "byteOffset": 6192,
      "componentType": 5126,
      "count": 929,
      "max": [
        639.2269287109375,
        1499.541015625,
        640.8829345703125
      ],
      "min": [
        -639.948974609375,
        -724.3812255859375,
        0.6267110109329224
      ],
      "type": "VEC3"
    },
    {
      "bufferView": 2,
      "byteOffset": 17340,
      "componentType": 5126,
      "count": 929,
      "max": [
        0.9964110255241394,
        1.0,
        1.0
      ],
      "min": [
        -0.9964122176170349,
        -1.0,
        -1.0
      ],
      "type": "VEC3"
    },
    {
      "bufferView": 3,
      "byteOffset": 4128,
      "componentType": 5126,
      "count": 929,
      "max": [
        0.9813364148139954,
        1.0,
        1.0,
        1.0
      ],
      "min": [
        -0.978012204170227,
        -1.0,
        -0.9989476799964905,
        1.0
      ],
      "type": "VEC4"
    },
    {
      "bufferView": 1,
      "byteOffset": 2064,
      "componentType": 5126,
      "count": 929,
      "max": [
        0.9980080127716064,
        0.9851459860801697
      ],
      "min": [
        0.0019920000340789557,
        0.0019660000689327717
      ],
      "type": "VEC2"
    },
    {
      "bufferView": 0,
      "byteOffset": 1752,
      "componentType": 5125,
      "count": 3216,
      "type": "SCALAR"
    }
  ],
  "asset": {
    "extras": {
      "author": "GetDeadEntertainment (https://sketchfab.com/GetDeadEntertainment)",
      "license": "CC-BY-4.0 (http://creativecommons.org/licenses/by/4.0/)",
      "source": "https://sketchfab.com/3d-models/sci-fi-hangar-0625335964a5496980ccfbc3b76c49ff",
      "title": "Sci Fi Hangar"
    },
    "generator": "Sketchfab-14.10.0",
    "version": "2.0"
  },
  "bufferViews": [
    {
      "buffer": 0,
      "byteLength": 14616,
      "name": "floatBufferViews",
      "target": 34963
    },
    {
      "buffer": 0,
      "byteLength": 9496,
      "byteOffset": 14616,
      "byteStride": 8,
      "name": "floatBufferViews",
      "target": 34962
    },
    {
      "buffer": 0,
      "byteLength": 28488,
      "byteOffset": 24112,
      "byteStride": 12,
      "name": "floatBufferViews",
      "target": 34962
    },
    {
      "buffer": 0,
      "byteLength": 18992,
      "byteOffset": 52600,
      "byteStride": 16,
      "name": "floatBufferViews",
      "target": 34962
    }
  ],
  "buffers": [
    {
      "byteLength": 71592,
      "uri": "scene.bin"
    }
  ],
  "images": [
    {
      "uri": "textures/Hangar1SG_baseColor.png"
    },
    {
      "uri": "textures/Hangar1SG_metallicRoughness.png"
    },
    {
      "uri": "textures/Hangar1SG_normal.png"
    },
    {
      "uri": "textures/Hangar1SG1_baseColor.png"
    },
    {
      "uri": "textures/Hangar1SG1_metallicRoughness.png"
    },
    {
      "uri": "textures/Hangar1SG1_normal.png"
    }
  ],
  "materials": [
    {
      "doubleSided": true,
      "name": "Hangar1SG",
      "normalTexture": {
        "index": 2
      },
      "pbrMetallicRoughness": {
        "baseColorTexture": {
          "index": 0
        },
        "metallicRoughnessTexture": {
          "index": 1
        }
      }
    },
    {
      "doubleSided": true,
      "name": "Hangar1SG1",
      "normalTexture": {
        "index": 5
      },
      "pbrMetallicRoughness": {
        "baseColorTexture": {
          "index": 3
        },
        "metallicRoughnessTexture": {
          "index": 4
        }
      }
    }
  ],
  "meshes": [
    {
      "name": "Object_0",
      "primitives": [
        {
          "attributes": {
            "NORMAL": 1,
            "POSITION": 0,
            "TANGENT": 2,
            "TEXCOORD_0": 3
          },
          "indices": 4,
          "material": 0,
          "mode": 4
        }
      ]
    },
    {
      "name": "Object_1",
      "primitives": [
        {
          "attributes": {
            "NORMAL": 6,
            "POSITION": 5,
            "TANGENT": 7,
            "TEXCOORD_0": 8
          },
          "indices": 9,
          "material": 1,
          "mode": 4
        }
      ]
    }
  ],
  "nodes": [
    {
      "children": [
        1
      ],
      "matrix": [
        1.0,
        0.0,
        0.0,
        0.0,
        0.0,
        2.220446049250313e-16,
        -1.0,
        0.0,
        0.0,
        1.0,
        2.220446049250313e-16,
        0.0,
        0.0,
        0.0,
        0.0,
        1.0
      ],
      "name": "Sketchfab_model"
    },
    {
      "children": [
        2,
        3
      ],
      "name": "2b04b10faee548709f8cbc6bfa7a48f7.obj.cleaner.materialmerger.gles"
    },
    {
      "mesh": 0,
      "name": "Object_2"
    },
    {
      "mesh": 1,
      "name": "Object_3"
    }
  ],
  "samplers": [
    {
      "magFilter": 9729,
      "minFilter": 9987,
      "wrapS": 10497,
      "wrapT": 10497
    }
  ],
  "scene": 0,
  "scenes": [
    {
      "name": "Sketchfab_Scene",
      "nodes": [
        0
      ]
    }
  ],
  "textures": [
    {
      "sampler": 0,
      "source": 0
    },
    {
      "sampler": 0,
      "source": 1
    },
    {
      "sampler": 0,
      "source": 2
    },
    {
      "sampler": 0,
      "source": 3
    },
    {
      "sampler": 0,
      "source": 4
    },
    {
      "sampler": 0,
      "source": 5
    }
  ]
}
